<?xml version="1.0" encoding="UTF-8" standalone="no"?>
<svg
   xmlns:dc="http://purl.org/dc/elements/1.1/"
   xmlns:cc="http://creativecommons.org/ns#"
   xmlns:rdf="http://www.w3.org/1999/02/22-rdf-syntax-ns#"
   xmlns:svg="http://www.w3.org/2000/svg"
   xmlns="http://www.w3.org/2000/svg"
   xmlns:sodipodi="http://sodipodi.sourceforge.net/DTD/sodipodi-0.dtd"
   xmlns:inkscape="http://www.inkscape.org/namespaces/inkscape"
   version="1.1"
   x="0px"
   y="0px"
   viewBox="0 0 16 16"
   enable-background="new 0 0 16 16"
   xml:space="preserve"
   id="svg2"
   inkscape:version="0.48.4 r9939"
   width="100%"
   height="100%"
   sodipodi:docname="action.svg"
   inkscape:export-filename="C:\dev\web\cs\apps\RTI\website\public\images\action.png"
   inkscape:export-xdpi="180"
   inkscape:export-ydpi="180"><metadata
     id="metadata90"><rdf:RDF><cc:Work
         rdf:about=""><dc:format>image/svg+xml</dc:format><dc:type
           rdf:resource="http://purl.org/dc/dcmitype/StillImage" /><dc:title></dc:title></cc:Work></rdf:RDF></metadata><defs
     id="defs88" /><sodipodi:namedview
     pagecolor="#ffffff"
     bordercolor="#666666"
     borderopacity="1"
     objecttolerance="10"
     gridtolerance="10"
     guidetolerance="10"
     inkscape:pageopacity="0"
     inkscape:pageshadow="2"
     inkscape:window-width="1920"
     inkscape:window-height="1053"
     id="namedview86"
     showgrid="false"
     inkscape:zoom="56.463214"
     inkscape:cx="8.1198693"
     inkscape:cy="7.9595743"
     inkscape:window-x="-9"
     inkscape:window-y="-9"
     inkscape:window-maximized="1"
     inkscape:current-layer="svg2" /><path
     d="M 4.3667699,8.0050303 13.706826,3.2148043 12.910098,1.5809966 C 12.689425,1.1493422 12.156796,0.94095726 11.718995,1.1580978 L 2.2220754,5.8695228 C 1.7851604,6.087539 1.5547387,6.6041234 1.7745255,7.0366534 l 0.3677885,0.818655 v 1.6206741 2.6267005 1.751134 c 0,0.484188 0.5051553,1.155748 0.9952446,1.155748 H 13.772407 c 0.490089,0 0.77723,-0.672436 0.77723,-1.155748 V 12.102683 9.4759825 8.0050303 H 4.3667699 z M 9.3412203,12.382864 H 5.7962707 c -0.2446015,0 -0.4431186,-0.196127 -0.4431186,-0.437783 0,-0.241657 0.1985171,-0.437783 0.4431186,-0.437783 h 3.5449496 c 0.2446015,0 0.4431186,0.196126 0.4431186,0.437783 0,0.241656 -0.1985171,0.437783 -0.4431186,0.437783 z M 11.999932,10.631731 H 5.7962707 c -0.2446015,0 -0.4431186,-0.196127 -0.4431186,-0.437784 0,-0.2416561 0.1985171,-0.4377831 0.4431186,-0.4377831 h 6.2036613 c 0.244602,0 0.443119,0.196127 0.443119,0.4377831 0,0.241657 -0.198517,0.437784 -0.443119,0.437784 z"
     id="path84"
     inkscape:connector-curvature="0" /></svg>