<?xml version="1.0" encoding="UTF-8" standalone="no"?>
<!-- Generator: Adobe Illustrator 17.1.0, SVG Export Plug-In . SVG Version: 6.00 Build 0)  -->

<svg
   xmlns:dc="http://purl.org/dc/elements/1.1/"
   xmlns:cc="http://creativecommons.org/ns#"
   xmlns:rdf="http://www.w3.org/1999/02/22-rdf-syntax-ns#"
   xmlns:svg="http://www.w3.org/2000/svg"
   xmlns="http://www.w3.org/2000/svg"
   xmlns:sodipodi="http://sodipodi.sourceforge.net/DTD/sodipodi-0.dtd"
   xmlns:inkscape="http://www.inkscape.org/namespaces/inkscape"
   version="1.2"
   x="0px"
   y="0px"
   width="64px"
   height="64px"
   viewBox="0 0 64 64"
   xml:space="preserve"
   id="svg2"
   inkscape:version="0.48.4 r9939"
   sodipodi:docname="missing girl.svg"
   inkscape:export-filename="C:\dev\web\cs\apps\RTI\website\public\images\missing_girl.png"
   inkscape:export-xdpi="28.799999"
   inkscape:export-ydpi="28.799999"><metadata
   id="metadata18"><rdf:RDF><cc:Work
       rdf:about=""><dc:format>image/svg+xml</dc:format><dc:type
         rdf:resource="http://purl.org/dc/dcmitype/StillImage" /><dc:title></dc:title></cc:Work></rdf:RDF></metadata><defs
   id="defs16" /><sodipodi:namedview
   pagecolor="#ffffff"
   bordercolor="#666666"
   borderopacity="1"
   objecttolerance="10"
   gridtolerance="10"
   guidetolerance="10"
   inkscape:pageopacity="0"
   inkscape:pageshadow="2"
   inkscape:window-width="640"
   inkscape:window-height="502"
   id="namedview14"
   showgrid="false"
   inkscape:zoom="3.6875"
   inkscape:cx="32"
   inkscape:cy="32"
   inkscape:window-x="0"
   inkscape:window-y="0"
   inkscape:window-maximized="0"
   inkscape:current-layer="svg2" />

<g
   id="Production"
   transform="translate(-10.576271,-0.54237288)">
	<g
   id="g8">
		<path
   d="m 23.3696,7.5547 c 3.6377,-0.1289 2.8154,1.9536 5.478,3.1362 1.3431,0.5968 2.4746,0.1964 3.303,-0.3963 -0.5684,3.3508 0.8855,5.6378 4.0422,6.3314 3.3027,0.7256 5.7222,-1.1675 6.4541,-4.4976 C 43.4799,8.335 41.9296,5.8613 38.7128,5.1548 35.4972,4.4482 33.2162,6.2189 32.3488,9.3262 32.3079,9.3071 32.1093,9.2657 32.1249,8.9375 32.1439,8.5377 32.2811,7.7656 32.6292,6.9008 32.0419,6.3138 31.1203,5.711 29.662,5.3115 26.9628,4.5718 24.3876,6.1084 23.1654,7.0195 22.9282,7.1963 23.0737,7.5649 23.3696,7.5547 z"
   id="path10"
   inkscape:connector-curvature="0" />
		<path
   d="m 51.9009,28.0253 c 0,0 -6.5825,1.3287 -8.5385,1.0285 -1.2837,-1.85 -3.0902,-6.8462 -4.5042,-8.6349 -2.7914,-3.5314 -13.6288,-2.4448 -16.8461,-0.7601 -2.125,1.1214 -2.6702,2.3102 -3.2305,4.5142 -0.4885,2.1026 -0.6727,5.2774 -0.7754,7.4412 0.0586,1.1298 0.5444,2.7895 2.7913,3.2087 0.0046,-0.0041 1.644,-7.4115 2.3856,-9.341 0.1858,-0.4922 0.439,-1.0131 0.5906,-1.166 0,0 0.913,-0.4913 3.256,-0.7184 -0.3197,1.0001 -2.8208,9.9145 -2.8208,11.8058 0,1.146 0.5366,2.1813 1.3958,3.0145 1.0061,0.9758 5.3308,3.7469 5.3308,3.7469 -0.0179,0.1301 -0.1769,0.2142 -0.5586,0.1301 -2.1895,-0.4824 -4.1777,-0.978 -4.1777,-0.978 0,0 -1.6658,4.143 -2.5361,5.8921 -1.78,0.644 -5.4164,1.3601 -7.2714,1.6723 -2.4252,0.4081 -3.5041,2.6269 -3.3615,5.0817 3.0437,-0.1489 7.2972,-0.4283 10.293,-0.8855 3.7212,-0.5865 4.4304,-1.1066 5.9811,-3.5809 0.938,-1.4796 2.3378,-4.1252 3.4513,-6.3068 3.4419,2.1324 5.7538,3.5156 5.7538,3.5156 0.8199,1.9873 1.7455,7.4982 2.1456,9.5994 0.5596,2.939 2.7581,4.5051 5.3,4.6355 -0.0474,-3.7879 -0.2236,-9.2028 -0.6506,-12.9952 -0.5952,-4.7593 -0.7595,-5.352 -5.7788,-9.4234 -1.3354,-1.0588 -2.5857,-1.9887 -3.7065,-2.8055 0.5349,-2.2714 1.167,-4.8045 1.7372,-7.0416 0.4354,0.8765 0.8937,1.7373 1.4164,2.5506 1.0046,1.5119 1.6635,2.0382 2.9453,2.3884 2.5286,0.5658 5.1218,0.0693 7.5244,-1.1444 2.6753,-1.3515 2.6448,-3.5091 2.4585,-4.4438 z m -13.5261,18.469 0.007,0.0092 0.0281,0.037 0.0563,0.0742 0.0176,0.0234 c 7e-4,0.0015 0.0015,0.0036 0.002,0.0051 -0.0586,-0.0789 -0.0951,-0.1276 -0.1123,-0.1506 0.0037,0.0047 0.0072,0.0095 0.01,0.0132 -0.0026,-0.0032 -0.0034,-0.0041 -0.0087,-0.0115 z"
   id="path12"
   inkscape:connector-curvature="0" />
	</g>
</g>
<text
   xml:space="preserve"
   style="font-size:60.12644577px;font-style:normal;font-variant:normal;font-weight:normal;font-stretch:normal;line-height:125%;letter-spacing:0px;word-spacing:0px;fill:#000000;fill-opacity:1;stroke:none;font-family:Arial;-inkscape-font-specification:Sans"
   x="28.360607"
   y="51.299377"
   id="text2985"
   sodipodi:linespacing="125%"><tspan
     sodipodi:role="line"
     id="tspan2987"
     x="28.360607"
     y="51.299377"
     style="font-weight:bold;-inkscape-font-specification:Arial Bold">?</tspan></text>
</svg>