<?xml version="1.0" encoding="UTF-8" standalone="no"?>
<svg
   xmlns:dc="http://purl.org/dc/elements/1.1/"
   xmlns:cc="http://creativecommons.org/ns#"
   xmlns:rdf="http://www.w3.org/1999/02/22-rdf-syntax-ns#"
   xmlns:svg="http://www.w3.org/2000/svg"
   xmlns="http://www.w3.org/2000/svg"
   xmlns:sodipodi="http://sodipodi.sourceforge.net/DTD/sodipodi-0.dtd"
   xmlns:inkscape="http://www.inkscape.org/namespaces/inkscape"
   version="1.1"
   x="0px"
   y="0px"
   viewBox="0 0 100 100"
   enable-background="new 0 0 100 100"
   xml:space="preserve"
   id="svg2"
   inkscape:version="0.48.4 r9939"
   width="100%"
   height="100%"
   sodipodi:docname="question.svg"
   inkscape:export-filename="C:\dev\web\cs\apps\RTI\website\public\images\question.png"
   inkscape:export-xdpi="28.799999"
   inkscape:export-ydpi="28.799999"><metadata
     id="metadata10"><rdf:RDF><cc:Work
         rdf:about=""><dc:format>image/svg+xml</dc:format><dc:type
           rdf:resource="http://purl.org/dc/dcmitype/StillImage" /><dc:title></dc:title></cc:Work></rdf:RDF></metadata><defs
     id="defs8" /><sodipodi:namedview
     pagecolor="#ffffff"
     bordercolor="#666666"
     borderopacity="1"
     objecttolerance="10"
     gridtolerance="10"
     guidetolerance="10"
     inkscape:pageopacity="0"
     inkscape:pageshadow="2"
     inkscape:window-width="640"
     inkscape:window-height="502"
     id="namedview6"
     showgrid="false"
     inkscape:zoom="2.36"
     inkscape:cx="50"
     inkscape:cy="50"
     inkscape:window-x="0"
     inkscape:window-y="0"
     inkscape:window-maximized="0"
     inkscape:current-layer="svg2" /><path
     d="m 49.99992,6.9357966 c -20.683243,0 -37.447641,16.7655574 -37.447641,37.4476404 0,12.818879 6.478446,24.128904 16.300493,30.879894 l -0.05451,0.04059 v 16.30861 c 0,3.261258 3.19863,0 3.19863,0 L 42.529876,81.08071 c 2.41347,0.489421 4.913923,0.746889 7.471204,0.746889 20.683243,0 37.447641,-16.764398 37.447641,-37.444162 C 87.447561,23.701354 70.683163,6.9357966 49.99992,6.9357966 z M 48.565291,70.638189 c -4.111365,0 -6.900599,-3.022346 -6.900599,-7.056008 0,-4.18675 2.868098,-7.054848 6.900599,-7.054848 4.183271,0 6.897121,2.868098 6.978304,7.054848 -0.0012,4.032502 -2.715009,7.056008 -6.978304,7.056008 z m 9.016011,-28.92337 c -2.790394,3.181234 -4.320124,6.204741 -4.320124,9.694473 v 1.062344 h -9.583135 l -0.07654,-1.849825 c -0.233113,-3.955957 1.085539,-7.903796 4.574111,-12.012842 2.480737,-3.023506 4.498727,-5.540196 4.498727,-8.098636 0,-2.71385 -1.784877,-4.553236 -5.660811,-4.6321 -2.5596,0 -5.660811,0.941728 -7.677642,2.336925 l -2.634985,-8.446566 c 2.868098,-1.628309 7.44221,-3.176595 12.947612,-3.176595 10.234923,0 14.78352,5.660811 14.78352,12.096345 0,5.891605 -3.904927,9.769858 -6.850729,13.026477 z"
     id="path4"
     inkscape:connector-curvature="0"
     style="fill:#000000" /></svg>