<?xml version="1.0" encoding="UTF-8" standalone="no"?>
<svg
   xmlns:dc="http://purl.org/dc/elements/1.1/"
   xmlns:cc="http://creativecommons.org/ns#"
   xmlns:rdf="http://www.w3.org/1999/02/22-rdf-syntax-ns#"
   xmlns:svg="http://www.w3.org/2000/svg"
   xmlns="http://www.w3.org/2000/svg"
   xmlns:sodipodi="http://sodipodi.sourceforge.net/DTD/sodipodi-0.dtd"
   xmlns:inkscape="http://www.inkscape.org/namespaces/inkscape"
   version="1.1"
   viewBox="0 0 100 100"
   x="0px"
   y="0px"
   id="svg2"
   inkscape:version="0.48.4 r9939"
   width="100%"
   height="100%"
   sodipodi:docname="noun_69943_cc.svg">
  <metadata
     id="metadata18">
    <rdf:RDF>
      <cc:Work
         rdf:about="">
        <dc:format>image/svg+xml</dc:format>
        <dc:type
           rdf:resource="http://purl.org/dc/dcmitype/StillImage" />
        <dc:title></dc:title>
      </cc:Work>
    </rdf:RDF>
  </metadata>
  <defs
     id="defs16" />
  <sodipodi:namedview
     pagecolor="#ffffff"
     bordercolor="#666666"
     borderopacity="1"
     objecttolerance="10"
     gridtolerance="10"
     guidetolerance="10"
     inkscape:pageopacity="0"
     inkscape:pageshadow="2"
     inkscape:window-width="1920"
     inkscape:window-height="1053"
     id="namedview14"
     showgrid="false"
     inkscape:zoom="6.7234934"
     inkscape:cx="48"
     inkscape:cy="55.524589"
     inkscape:window-x="-9"
     inkscape:window-y="-9"
     inkscape:window-maximized="1"
     inkscape:current-layer="svg2" />
  <path
     d="m 88.379715,95.632652 h -76 c -1.104,0 -2,-1.003855 -2,-2.230791 V 33.170494 c 0,-1.226935 0.896,-2.230791 2,-2.230791 1.104,0 2,1.003856 2,2.230791 V 91.17107 h 72 V 33.170494 c 0,-1.226935 0.9,-2.230791 2,-2.230791 1.1,0 2,1.003856 2,2.230791 v 60.231367 c 0,1.226936 -0.9,2.230791 -2,2.230791 z"
     id="path4"
     inkscape:connector-curvature="0"
     style="fill:#000000" />
  <path
     d="m 89.230983,32.708718 c -3.084,0 -5.632,-0.948846 -7.22,-2.52664 -1.836,1.542552 -4.64,2.52664 -7.78,2.52664 -3.264,0 -6.172,-1.07084 -8,-2.71641 -1.828,1.64557 -4.736,2.71641 -8,2.71641 -3.264,0 -6.172,-1.07084 -8,-2.71641 -1.828,1.64557 -4.732,2.71641 -8,2.71641 -3.268,0 -6.172,-1.07084 -8,-2.71641 -1.828,1.64557 -4.732,2.71641 -8,2.71641 -3.268,0 -6.172,-1.07084 -8,-2.71641 -1.828,1.64557 -4.732,2.71641 -8,2.71641 -4.4119999,0 -7.9999999,-3.039017 -7.9999999,-6.777469 v -1.355494 c 0,-0.154526 0.04,-0.306341 0.112,-0.450024 L 12.218983,5.1488204 c 0.284,-0.542199 1.04,-0.905471 1.888,-0.905471 h 72.124 c 0.844,0 1.6,0.360561 1.884,0.900049 l 10,18.9769106 c 0.08,0.146394 0.116,0.298209 0.116,0.455446 v 1.355494 c 0,3.990574 -3.7,6.777469 -9,6.777469 z m -5,-6.777469 c 0,1.873293 1.308,4.066481 5,4.066481 3.692,0 5,-2.193188 5,-4.066481 v -1.119638 l -9.416,-17.8572736 h -69.296 L 6.2269831,24.8089 v 1.122349 c 0,2.204033 1.832,4.066481 3.9999999,4.066481 3.308,0 6,-1.824494 6,-4.066481 0,-0.745521 0.896,-1.355494 2,-1.355494 1.104,0 2,0.609973 2,1.355494 0,2.241987 2.692,4.066481 6,4.066481 3.308,0 6,-1.824494 6,-4.066481 0,-0.745521 0.896,-1.355494 2,-1.355494 1.104,0 2,0.609973 2,1.355494 0,2.241987 2.692,4.066481 6,4.066481 3.308,0 6,-1.824494 6,-4.066481 0,-0.745521 0.896,-1.355494 2,-1.355494 1.104,0 2,0.609973 2,1.355494 0,2.241987 2.692,4.066481 6,4.066481 3.308,0 6,-1.824494 6,-4.066481 0,-0.745521 0.896,-1.355494 2,-1.355494 1.104,0 2,0.609973 2,1.355494 0,2.241987 2.692,4.066481 6,4.066481 3.308,0 6,-1.824494 6,-4.066481 0,-0.745521 0.896,-1.355494 2,-1.355494 1.104,0 2.004,0.609973 2.004,1.355494 z"
     id="path8"
     inkscape:connector-curvature="0"
     style="fill:#000000" />
  <path
     inkscape:connector-curvature="0"
     d="m 31.247568,69.709519 c -0.187077,-4.70867 2.323991,-8.616693 4.802765,-11.819836 l 0.341862,-0.454887 c 0.812339,-1.101864 1.347402,-1.830129 3.820052,-1.658085 1.893045,0.134741 3.80502,1.546729 3.80502,3.992097 0,0.0061 0,0.01169 0,0.01949 -0.0078,1.471007 -0.968794,2.791127 -1.984356,4.183629 -1.236604,1.693161 -2.6369,3.609033 -2.6369,6.21698 0,0.746082 0.164249,1.324018 0.324601,1.876898 0.154228,0.545086 0.30066,1.056208 0.30066,1.716546 0,2.246042 -1.898612,4.0745 -4.230397,4.0745 -2.801706,0 -4.328391,-2.742688 -4.543307,-8.147329 z"
     id="path4-1" />
  <path
     inkscape:connector-curvature="0"
     d="m 43.570174,89.250748 c -3.096241,0 -5.615661,-2.515522 -5.615661,-5.610649 0,-3.096242 2.51942,-5.611207 5.615661,-5.611207 3.093457,0 5.611207,2.515522 5.611207,5.611207 0,3.095127 -2.51775,5.610649 -5.611207,5.610649 z"
     id="path6" />
  <path
     inkscape:connector-curvature="0"
     d="m 57.366571,89.250748 c -3.096242,0 -5.615104,-2.515522 -5.615104,-5.610649 0,-3.096242 2.518862,-5.611207 5.615104,-5.611207 3.095684,0 5.615104,2.515522 5.615104,5.611207 0,3.095127 -2.51942,5.610649 -5.615104,5.610649 z"
     id="path8-7" />
  <path
     inkscape:connector-curvature="0"
     d="m 65.047877,77.856848 c -2.331785,0 -4.230398,-1.828458 -4.230398,-4.0745 0,-0.660338 0.14699,-1.17146 0.30066,-1.716546 0.162023,-0.55288 0.324602,-1.130816 0.324602,-1.876898 0,-2.607947 -1.398626,-4.523819 -2.635229,-6.21698 -1.017233,-1.394729 -1.976562,-2.712622 -1.9838,-4.183629 0,-0.0078 0,-0.01336 0,-0.01949 0,-2.445368 1.910305,-3.857356 3.80502,-3.992097 2.468752,-0.172044 3.005486,0.556778 3.817825,1.658085 l 0.343532,0.454887 c 2.478775,3.203143 4.984831,7.111166 4.803322,11.819836 -0.216587,5.404641 -1.746612,8.147329 -4.545534,8.147329 z"
     id="path10" />
  <path
     inkscape:connector-curvature="0"
     d="m 60.712248,33.582993 c -4.324493,-0.211019 -5.156319,2.990453 -5.156319,2.990453 0,0 -2.0044,-1.226581 -5.134604,-1.226581 -3.132432,0 -5.138502,1.226581 -5.138502,1.226581 0,0 -0.830156,-3.201472 -5.154649,-2.990453 -2.51942,0.12082 -4.57393,2.226554 -4.57393,4.749871 0,2.362964 1.552854,5.534927 4.085636,5.615103 l 0.326271,0.01002 c -0.07628,0.429833 -0.10189,1.626905 -0.10189,1.943155 0,5.822225 4.736509,10.562631 10.556507,10.562631 5.818328,0 10.554836,-4.740406 10.554836,-10.562631 0,-0.31625 -0.02728,-1.513322 -0.09966,-1.943155 l 0.322374,-0.01002 c 2.53501,-0.08018 4.089533,-3.252139 4.089533,-5.615103 5.57e-4,-2.523317 -2.05618,-4.629051 -4.5756,-4.749871 z M 44.738294,45.311516 c 0,-0.771694 0.628602,-1.400296 1.402523,-1.400296 0.773364,0 1.402523,0.628602 1.402523,1.400296 0,0.777262 -0.629159,1.402523 -1.402523,1.402523 -0.773921,0 -1.402523,-0.625261 -1.402523,-1.402523 z m 10.366645,6.236468 c -0.03675,0.08185 -0.904207,1.994378 -2.74213,1.994378 -0.795079,0 -1.443168,-0.187634 -1.945382,-0.533393 -0.525041,0.318477 -1.179812,0.486624 -1.966539,0.486624 -2.007741,0 -2.950922,-1.828458 -2.988226,-1.90251 -0.212689,-0.417583 -0.04677,-0.929819 0.366916,-1.144735 0.41647,-0.218814 0.93149,-0.05679 1.150303,0.361349 0.0039,0.01002 0.519474,0.976588 1.47045,0.976588 0.669804,0 1.009438,-0.163693 1.161996,-0.275605 0,-0.199326 0,-0.999973 0,-1.343505 -0.58406,-0.13307 -1.01779,-0.656441 -1.01779,-1.273351 0,-0.717129 0.58406,-1.30453 1.30286,-1.30453 l 1.189277,-0.01002 c 0.678155,0 1.253864,0.603547 1.253864,1.314552 0,0.61524 -0.447093,1.123021 -1.01946,1.23215 0,0.363019 0,1.267226 0,1.443168 0.11915,0.10356 0.40255,0.265583 1.041174,0.265583 0.722698,0 1.179255,-0.971021 1.181482,-0.978816 0.09354,-0.208791 0.263913,-0.373041 0.476045,-0.45099 0.213246,-0.08185 0.445423,-0.07238 0.652544,0.02172 0.315136,0.138637 0.506668,0.451546 0.506668,0.778932 0,0.115253 -0.02506,0.230506 -0.07405,0.342418 z m -0.38529,-4.833945 c -0.771137,0 -1.400296,-0.625261 -1.400296,-1.402523 0,-0.771694 0.629159,-1.400296 1.400296,-1.400296 0.775592,0 1.404194,0.628602 1.404194,1.400296 5.56e-4,0.777262 -0.628602,1.402523 -1.404194,1.402523 z"
     id="path12" />
</svg>
